<?xml version="1.0" encoding="utf-8"?>
<!-- Generator: Adobe Illustrator 24.1.2, SVG Export Plug-In . SVG Version: 6.00 Build 0)  -->
<svg version="1.1" id="Слой_1" xmlns="http://www.w3.org/2000/svg" xmlns:xlink="http://www.w3.org/1999/xlink" x="0px" y="0px"
	 viewBox="0 0 99.5 99.5" style="enable-background:new 0 0 99.5 99.5;" xml:space="preserve">
<style type="text/css">
	.st0{fill:#010101;}
</style>
<g>
	<path class="st0" d="M70.5,64.4c2.5,0.4,5,1,7.4,2c3.9,1.6,7,4.1,8.7,8.1c2.4,5.9,1.9,13.9-3.7,18.9c-2.8,2.5-6.1,4-9.7,5
		c-3.5,1-7.1,1.4-10.7,1.4c-5.8,0-11.6,0-17.4,0c-0.6,0-0.7-0.2-0.7-0.7c0-21.6,0-43.3,0-64.9c0-0.6,0.2-0.7,0.8-0.7
		c2.9,0,5.9,0,8.8,0c0.5,0,0.6-0.1,0.6-0.6c0-1.6,0-3.3,0-4.9c0-0.5-0.1-0.5-0.6-0.5c-8.5,0-16.9,0-25.4,0c-0.6,0-0.5,0.3-0.5,0.7
		c0,9.1,0,18.2,0,27.3c0,0.7-0.2,0.8-0.8,0.8c-1.6,0-3.3,0-4.9,0c-0.6,0-0.7-0.2-0.7-0.7c0-18.4,0-36.8,0-55.3
		c0-0.5,0.1-0.6,0.6-0.6c1.7,0,3.4,0,5.1,0c0.6,0,0.7,0.2,0.7,0.7c0,8.3,0,16.5,0,24.8c0,0.7,0.2,0.8,0.8,0.8c8.3,0,16.6,0,25,0
		c0.6,0,0.7-0.2,0.7-0.8c0-8.3,0-16.5,0-24.8c0-0.7,0.2-0.8,0.8-0.8c1.7,0,3.3,0,5,0c0.6,0,0.8,0.1,0.8,0.7c0,9.5,0,19,0,28.5
		c0,1.3,0,2.7,0,4c0,0.5,0.1,0.6,0.6,0.6c2.4,0,4.8-0.1,7.2,0.2c3.9,0.4,7.8,1.3,11.1,3.4c4.3,2.7,6,6.7,5.7,11.7
		c-0.4,6.5-4.1,10.8-9.8,13.6C74.1,63.2,72.4,63.8,70.5,64.4z M51.8,81.9c0,5.2,0,10.4,0,15.5c0,0.5,0.1,0.6,0.6,0.6
		c3.3-0.1,6.6,0.1,9.8-0.2c3.4-0.3,6.7-0.8,9.8-2.3c3.9-1.8,6.5-4.7,7.4-8.9c0.8-4,0.6-7.9-0.8-11.7c-1-2.7-2.8-4.8-5.2-6.3
		c-2.8-1.7-6-2.5-9.2-2.8c-3.9-0.3-7.9-0.1-11.8-0.2c-0.6,0-0.6,0.2-0.6,0.7C51.8,71.6,51.8,76.8,51.8,81.9z M51.8,49.6
		c0,4.6,0,9.2,0,13.8c0,0.6,0.2,0.7,0.7,0.7c1.7,0,3.3,0,5,0c4,0,7.9-0.5,11.7-2c3.4-1.4,6-3.8,7.4-7.2c1.1-2.8,1.3-5.7,0.9-8.7
		c-0.6-4.3-2.7-7.5-6.8-9.3c-2.8-1.2-5.7-1.6-8.7-1.7c-0.6,0-0.8,0.1-0.8,0.8c0,6.6,0,13.1,0,19.7c0,0.5-0.1,0.7-0.7,0.7
		c-1.7,0-3.5,0-5.2,0c-0.6,0-0.7-0.2-0.7-0.7c0-4.5,0-9.1,0-13.6c0-2.1,0-4.2,0-6.3c0-0.5-0.1-0.6-0.6-0.5c-0.5,0-1,0.1-1.4,0
		c-0.6-0.1-0.8,0.1-0.8,0.7C51.8,40.5,51.8,45,51.8,49.6z"/>
</g>
</svg>
