<?xml version="1.0" encoding="utf-8"?>
<!-- Generator: Adobe Illustrator 24.1.2, SVG Export Plug-In . SVG Version: 6.00 Build 0)  -->
<svg version="1.1" id="Слой_1" xmlns="http://www.w3.org/2000/svg" xmlns:xlink="http://www.w3.org/1999/xlink" x="0px" y="0px"
	 viewBox="0 0 518.93 518.93" style="enable-background:new 0 0 518.93 518.93;" xml:space="preserve">
<style type="text/css">
	.st0{fill:#010101;}
</style>
<g>
	<path class="st0" d="M340.9,334.63c13.18,2.3,26,5.31,38.19,10.5c20.09,8.54,36.49,21.31,45.02,42.04
		c12.59,30.59,9.78,72.05-19.26,97.9c-14.48,12.89-31.69,20.61-50.14,25.66c-18.13,4.96-36.68,7.44-55.51,7.47
		c-30.12,0.04-60.24-0.03-90.36,0.08c-2.97,0.01-3.69-0.79-3.69-3.71c0.07-112.09,0.08-224.19-0.01-336.28
		c0-3.19,0.92-3.87,3.96-3.84c15.25,0.16,30.5,0.01,45.74,0.14c2.6,0.02,3.35-0.61,3.29-3.25c-0.18-8.49-0.16-17,0-25.49
		c0.04-2.38-0.69-2.85-2.93-2.85c-43.87,0.07-87.74,0.09-131.6-0.03c-3.3-0.01-2.8,1.75-2.8,3.69c0,47.24-0.04,94.47,0.09,141.71
		c0.01,3.46-0.91,4.32-4.28,4.22c-8.49-0.25-17-0.23-25.49,0c-2.97,0.08-3.4-0.9-3.4-3.57c0.07-95.47,0.07-190.95-0.01-286.42
		c0-2.7,0.74-3.27,3.3-3.22c8.75,0.17,17.5,0.21,26.24-0.01c2.98-0.08,3.62,0.79,3.61,3.67c-0.1,42.86-0.02,85.73-0.15,128.59
		c-0.01,3.41,0.83,4.26,4.24,4.25c43.12-0.13,86.24-0.12,129.35,0c3.2,0.01,3.83-0.87,3.82-3.92c-0.11-42.86-0.03-85.73-0.16-128.59
		c-0.01-3.37,0.86-4.09,4.08-4c8.62,0.24,17.25,0.22,25.87,0.01c3.03-0.08,3.91,0.57,3.91,3.79c-0.12,49.24-0.08,98.47-0.08,147.71
		c0,6.87,0.11,13.75-0.06,20.62c-0.06,2.42,0.58,3.13,3.06,3.1c12.37-0.18,24.76-0.29,37.07,1.06c20.36,2.23,40.17,6.49,57.75,17.71
		c22.07,14.09,30.84,34.92,29.31,60.39c-2.05,33.94-21.08,55.99-50.54,70.33C359.53,328.37,350.33,331.72,340.9,334.63z
		 M243.89,425.65c0,26.86,0.04,53.71-0.06,80.57c-0.01,2.62,0.67,3.34,3.3,3.29c16.98-0.3,33.98,0.51,50.94-0.93
		c17.47-1.48,34.65-4.29,50.72-11.78c20.07-9.35,33.64-24.21,38.37-46.22c4.4-20.49,2.98-40.75-4.17-60.42
		c-5.1-14.04-14.34-25.07-27.14-32.84c-14.68-8.91-30.92-13.02-47.88-14.44c-20.33-1.7-40.71-0.54-61.06-0.97
		c-3-0.06-3.06,1.25-3.05,3.53C243.91,372.19,243.89,398.92,243.89,425.65z M243.89,258.09c0,23.86,0.06,47.72-0.08,71.59
		c-0.02,3.03,0.87,3.7,3.73,3.63c8.62-0.18,17.24-0.05,25.86-0.07c20.74-0.04,41.12-2.36,60.39-10.61
		c17.55-7.51,30.92-19.47,38.15-37.52c5.82-14.52,6.58-29.62,4.52-44.92c-3.02-22.47-14.24-38.99-35.46-48.12
		c-14.45-6.22-29.71-8.16-45.25-8.92c-3.19-0.16-4.12,0.45-4.11,3.89c0.16,33.98,0.07,67.96,0.15,101.95
		c0.01,2.63-0.36,3.69-3.38,3.62c-8.99-0.23-17.99-0.22-26.98,0c-2.92,0.07-3.45-0.85-3.43-3.56c0.11-23.49,0.06-46.97,0.06-70.46
		c0-10.87-0.08-21.74,0.06-32.61c0.03-2.36-0.61-3.04-2.9-2.85c-2.48,0.21-5.02,0.26-7.49-0.01c-3.04-0.33-3.96,0.55-3.93,3.78
		C243.96,210.62,243.89,234.35,243.89,258.09z"/>
</g>
</svg>
