<?xml version="1.0" encoding="utf-8"?>
<!-- Generator: Adobe Illustrator 24.1.2, SVG Export Plug-In . SVG Version: 6.00 Build 0)  -->
<svg version="1.1" id="Слой_1" xmlns="http://www.w3.org/2000/svg" xmlns:xlink="http://www.w3.org/1999/xlink" x="0px" y="0px"
	 viewBox="0 0 200 200" style="enable-background:new 0 0 200 200;" xml:space="preserve">
<style type="text/css">
	.st0{fill:#58423B;}
</style>
<g>
	<path class="st0" d="M52.8,166.9c5.7,1.3,11.4,2.3,16.9,3.8c14.3,3.8,28.5,7.8,42.7,11.8c7.5,2.1,15.2,2.6,22.9,2.6
		c9.8,0,19.5-0.9,28.9-3.8c3.5-1.1,6.8-2.6,9.5-5.3c1.2-1.2,1.6-2.7,2.4-4.1c0.5-0.8,0.8-1.8,1.5-2.4c1.2-1.2,2.7-1.3,4.3-0.5
		c1.7,0.8,1.2,2.3,0.9,3.4c-0.7,2.8-2,5.3-4.1,7.4c-5.5,5.6-11.6,10.4-18.5,14.1c-5.4,2.9-11.3,4.2-17.3,5.2
		c-7.2,1.2-14.5,1.2-21.6,0.4c-12.2-1.3-24.2-4.5-36.1-7.6c-8.4-2.2-16.9-4.4-25.3-6.7c-6.5-1.8-13-3.7-19.6-5.5
		c-0.5-0.2-1.2,0-1.6-0.3c-4.9-3.4-7.5,0-10.7,3.1c-5.7,5.6-12.2,10.1-19.4,13.7c-1.3,0.6-2.8,1.8-4.2-0.1c-0.4-0.5-0.5-0.9-0.5-1.5
		c-0.5-7.6,1.4-14.5,6.3-20.2c3.6-4.2,8.7-6.2,14.1-7.2c3.6-0.7,7.3-1.4,11-1.1c3.4,0.3,6.1-0.9,8.8-2.6
		c15.5-9.3,30.9-18.9,45.8-29.1c7.9-5.3,15.7-10.8,23.2-16.6c5.9-4.5,11.6-9.4,17.3-14.2c7.1-6,13.7-12.4,20-19.2
		c9.1-9.8,16.9-20.7,20.4-33.9c2.1-7.9,0.8-15.6-4.1-22.4c-4.8-6.6-11-11.7-18.9-13.7c-7.6-2-15.5-2.3-23.4-1.3
		c-3.6,0.5-7.2,0.7-10.9,1c-6.8,0.6-13.1,2.8-19.5,5c-5.8,2-11.5,4.4-17,7.2c-7.4,3.7-14.6,7.7-19.9,14.3c-3.6,4.4-4.5,9.1-2.2,14.3
		c0.8,1.8,2.1,3.8-0.1,5.3c-2.2,1.5-3.6-0.5-5.2-1.8c-4.2-3.5-6-8.2-6.2-13.3c-0.2-4.3,2-8.1,4.5-11.4c6.4-8.3,14.8-14.3,24.2-18.9
		C86.5,7.8,101.5,3,117.3,1c18-2.3,35.7-1,52.9,5.3c8.5,3.1,15.9,8,20.7,16c5.9,9.9,6.8,20.3,2.8,31.2c-3.4,9.1-8.7,17-14.9,24.3
		c-13.5,16.2-30.1,29-47.1,41c-24.2,17.1-49.7,31.9-75.7,46C54.9,165.5,53.7,165.9,52.8,166.9z"/>
</g>
</svg>
