<?xml version="1.0" encoding="utf-8"?>
<!-- Generator: Adobe Illustrator 24.1.2, SVG Export Plug-In . SVG Version: 6.00 Build 0)  -->
<svg version="1.1" id="Слой_1" xmlns="http://www.w3.org/2000/svg" xmlns:xlink="http://www.w3.org/1999/xlink" x="0px" y="0px"
	 viewBox="0 0 200 200" style="enable-background:new 0 0 200 200;" xml:space="preserve">
<style type="text/css">
	.st0{fill:#58423B;}
</style>
<g>
	<path class="st0" d="M142.5,84.1c9.1,0.7,16.5,3.9,22.6,9.9c4.3,4.2,7.2,9.4,8.2,15.3c3,17.4-1.7,32.9-12.1,46.8
		c-8.6,11.6-19.5,20.7-32.1,27.8c-12.6,7.1-26,11.5-40.2,14.2c-9,1.7-18.1,2.2-27.2,1.8c-10.3-0.5-20.5-2.1-29.7-7.2
		c-7.7-4.2-12.1-10.8-14-19.2c-1.3-5.5-1.2-10.9,0.5-16.2c0.8-2.6,1.7-5.3,3.8-7.3c2.1-2,5.6-2.4,8-0.9c2.7,1.7,3.4,3.8,2.3,7.1
		c-3.9,12.7,1.4,24.9,13.3,31c8,4.1,16.4,6.2,25.4,5.9c10-0.4,19.5-2.7,28.6-6.7c7.3-3.2,14.1-7.3,20.5-12c6-4.4,11.6-9.5,16.5-15.1
		c5.3-6,9.7-12.7,12.5-20.2c2.3-6.2,3.8-12.7,4-19.5c0.1-4.9-0.1-9.6-2.2-14c-3-6.2-7.9-10.7-14-13.8c-3.8-1.9-7.6-3.8-11.8-4.7
		c-2.9-0.6-5.6-0.2-8.4,0.2c-6.8,1-13.4,2.7-20.3,3.2c-3.3,0.3-6.6,0.3-9.8-0.9c-2.8-1-5.3-4.4-4.9-7.1c0.5-3.3,3.1-5.5,6.6-5.8
		c3.9-0.3,7.6,0.8,11.3,1.2c11.4,1.1,22.4,0.5,33.1-4c6.3-2.6,12.4-5.7,17.7-10c6.3-5.2,11.1-11.7,12-20.1c0.8-8.4-1.2-15.9-7.7-22
		c-5.6-5.2-12-8.3-19.4-9.7c-4.6-0.8-9.2-1.2-13.9-1c-8.4,0.5-16.3,2.7-24,5.8c-5.4,2.2-10.5,4.7-14.9,8.6c-4.9,4.3-7.8,9.7-8,16.2
		c-0.1,3.3-1.4,5.4-5.6,6.4c-1.6,0.3-2-0.9-2.2-2.1c-0.3-3-0.2-6.1,0.4-9.1c1.2-5.1,3.1-10,6.2-14.3c3.8-5.2,8.7-9.2,14.2-12.4
		c10.7-6.1,22.3-9,34.5-9.9c4.7-0.4,9.4-0.6,14.1-0.4c12,0.6,23.6,2.9,33.4,10.3c7.2,5.4,11.7,12.6,12.7,21.7
		c1.8,16.5-5.5,29-17.4,39.4C158.7,77.2,151.1,80.7,142.5,84.1z"/>
</g>
</svg>
