<?xml version="1.0" encoding="utf-8"?>
<!-- Generator: Adobe Illustrator 24.1.2, SVG Export Plug-In . SVG Version: 6.00 Build 0)  -->
<svg version="1.1" id="Слой_1" xmlns="http://www.w3.org/2000/svg" xmlns:xlink="http://www.w3.org/1999/xlink" x="0px" y="0px"
	 viewBox="0 0 200 200" style="enable-background:new 0 0 200 200;" xml:space="preserve">
<style type="text/css">
	.st0{fill:#58423B;}
</style>
<g>
	<path class="st0" d="M130.1,35.5c-6.2,5.6-11.8,10.8-17.5,15.9c-8,7.1-16.4,13.6-25.4,19.4c-0.3,0.2-0.6,0.3-0.9,0.5
		c-1.1,0.5-2.4,1.6-3.2,0.3c-0.7-1-0.4-2.7,0.8-3.7c2.5-2.2,4.8-4.7,7.3-6.9c2.4-2,4.7-4.2,7-6.4c6.8-6.4,13.3-13.1,19.7-19.9
		c4.7-4.9,9.1-10.1,13.4-15.5c4.5-5.5,8.6-11.3,12.9-17c1-1.4,2.4-2.2,4.3-2.2c4.8-0.2,9.3,0.6,13.5,3.1c4.2,2.6,4.4,3.3,2.3,7.6
		c-12.5,24.8-24.8,49.7-36.4,75c-12.6,27.2-24.8,54.5-34.4,82.9c-1.3,3.8-2.4,7.7-3.6,11.5c-0.6,2.1-0.3,2.5,2,2.3
		c9.9-0.9,19.7-0.6,29.6,0.1c3.5,0.2,7.1,0.8,10.6,1.5c1.4,0.3,3.1,0.5,3.3,2.6c0.2,2.2-1.4,2.7-2.9,3.3c-1.7,0.7-3.5,0.6-5.3,0.6
		c-12.4,0.1-24.8,0.2-37.3,0.3c-1.2,0-2,0.4-3.1,1c-3.5,2-7.1,4.4-11.2,1.2c-0.6-0.5-1.3-0.3-1.9-0.2c-12,2.3-24.1,4.6-36.1,7
		c-2.7,0.5-3.6-0.6-3.1-3.2c1.1-6.5,7.5-10,14.2-10.7c8.5-0.9,16.9-2.2,25.4-2.7c1.4-0.1,1.6-0.6,1.9-2c1.5-5.7,2.9-11.4,4.9-17
		c1.9-5.6,3.3-11.5,5.4-17c3.3-8.8,6.5-17.8,9.6-26.7c1.7-4.8,4.1-9.2,5.6-14c1.5-4.9,3.6-9.6,5.5-14.4c3.4-8.8,6.4-17.8,10.2-26.4
		c4-9.2,7.6-18.6,11.8-27.8C129.4,37.4,129.6,36.8,130.1,35.5z"/>
</g>
</svg>
