<?xml version="1.0" encoding="utf-8"?>
<!-- Generator: Adobe Illustrator 24.1.2, SVG Export Plug-In . SVG Version: 6.00 Build 0)  -->
<svg version="1.1" id="Слой_1" xmlns="http://www.w3.org/2000/svg" xmlns:xlink="http://www.w3.org/1999/xlink" x="0px" y="0px"
	 viewBox="0 0 200 200" style="enable-background:new 0 0 200 200;" xml:space="preserve">
<style type="text/css">
	.st0{fill:#FEFEFE;}
	.st1{fill:#060606;}
</style>
<g>
	<path class="st0" d="M195.6,100.9c0,3.6,0,7.7-0.4,11.7c-1,11.4-3.9,22.2-8.8,32.5c-6.4,13.5-15.5,24.8-27.1,34.1
		c-11.9,9.5-25.4,15.7-40.3,18.7c-10.3,2.1-20.7,2.5-31.1,1.2c-12.8-1.6-24.9-5.5-36-12.2c-22.5-13.5-37.5-32.7-44.5-58.1
		c-2.5-9.2-3.5-18.6-3.1-28.2c0.2-4.4,0-8.8,0.4-13.2C5.5,79.7,7,72.1,9.6,64.7c5.7-16.4,15.1-30.2,28.2-41.5
		C49.2,13.4,62.3,6.7,76.8,3c10.7-2.7,21.6-3.5,32.6-2.4C124.8,2.1,139,7.1,152,15.5c16.4,10.6,28.4,25,36.2,42.9
		c3.5,8.2,5.8,16.7,6.9,25.5C195.6,89.5,195.9,95,195.6,100.9z M35.1,166.4c0.1,0.1,0.1,0.1,0.2,0.2c2.3,2.6,4.9,4.9,7.6,7.1
		c20.9,16.7,44.6,23.1,71.1,19.2c13-1.9,25-6.7,35.9-14c5-3.4,9.7-7.1,13.9-11.5c0.1-0.2,0.3-0.3-0.1-0.4c0,0.2,0.1,0.3,0.3,0.2
		c0,0,0.2-0.1,0.1-0.2c-0.1,0-0.2,0-0.3,0c0,0.1-0.1,0.2-0.1,0.3c-0.4,0.3-0.8,0.6-1.2,0.9c-3.5,3.1-7.2,5.8-11.1,8.3
		c-13.4,8.5-28.1,13.4-43.9,14.7c-7.7,0.6-15.4,0.3-23-1c-12.9-2.1-24.8-6.7-35.8-13.7c-4.7-3-9.1-6.4-13.3-10.1l-0.1-0.1
		c-0.1-0.1-0.2-0.2-0.2-0.2c-0.1-0.2-0.3-0.5-0.5-0.3c-0.1,0.1,0.1,0.3,0.3,0.4C35,166.3,35.1,166.4,35.1,166.4z"/>
	<path class="st1" d="M-362.2,823.2c-0.6-0.3-1.6-1-1.1-1.4c0.8-0.8,1.4,0.3,1.9,0.9C-361.7,822.8-362,823-362.2,823.2z"/>
	<path class="st1" d="M93.2,825.8c0.4,0,1-0.3,1.3-0.1c0.5,0.3-0.1,0.5-0.3,0.7C93.4,826.9,93.2,826.4,93.2,825.8L93.2,825.8z"/>
	<path class="st1" d="M-361.4,822.7c0.3,0.3,0.5,0.6,0.8,0.9c-0.3,0.1-0.6,0.2-0.9,0.4c-0.2-0.3-0.5-0.5-0.7-0.8
		C-362,823-361.7,822.8-361.4,822.7z"/>
	<path class="st1" d="M-360.6,823.5c0,0,0.3,0.3,0.3,0.3c-0.1,0.3-0.3,0.6-0.4,0.9c-0.2-0.3-0.5-0.5-0.7-0.8
		C-361.2,823.8-360.9,823.7-360.6,823.5z"/>
	<path class="st1" d="M93.1,825.7c1.2,0.3,0.7,0.9,0.2,1.4c-0.2-0.1-0.3-0.3-0.5-0.4C93,826.4,93.1,826.1,93.1,825.7
		C93.2,825.8,93.1,825.7,93.1,825.7z"/>
</g>
</svg>
